<svg width="32" height="32" viewBox="0 0 32 32" fill="none" xmlns="http://www.w3.org/2000/svg">
<circle cx="16" cy="16" r="16" fill="white"/>
<path d="M23.5833 12.75H22.695L20.8533 7.485C20.7009 7.05087 20.4239 6.67573 20.0597 6.41019C19.6955 6.14465 19.2617 6.00149 18.8167 6H17.0833C16.4875 6 16 6.50625 16 7.125C16 7.74375 16.4875 8.25 17.0833 8.25H18.8167L20.3983 12.75H15.1875L14.7975 11.625H14.895C15.4908 11.625 15.9783 11.1188 15.9783 10.5C15.9783 9.88125 15.4908 9.375 14.895 9.375H11.6667C11.0708 9.375 10.5833 9.88125 10.5833 10.5C10.5833 11.1188 11.0708 11.625 11.6667 11.625H12.4792L14.4508 17.25H13.725C13.2483 14.7413 11.2225 12.885 8.6875 12.7613C5.65417 12.6038 3 15.225 3 18.375C3 21.525 5.38333 24 8.41667 24C11.0817 24 13.2375 22.0987 13.725 19.5H18.275C18.7517 22.0087 20.7775 23.865 23.3125 23.9887C26.3458 24.135 29 21.525 29 18.3637C29 15.225 26.6167 12.75 23.5833 12.75ZM9.5 19.5H11.4717C11.0167 20.8837 9.73833 21.84 8.2 21.7387C6.58583 21.6375 5.2425 20.22 5.16667 18.5325C5.09083 16.5638 6.5425 15 8.41667 15C9.8575 15 11.0383 15.9338 11.4717 17.25H9.5C8.90417 17.25 8.41667 17.7562 8.41667 18.375C8.41667 18.9938 8.90417 19.5 9.5 19.5ZM18.275 17.25H16.7583L15.9675 15H19.25C18.7733 15.6525 18.4267 16.4062 18.275 17.25ZM23.4533 21.75C21.785 21.6825 20.3767 20.2088 20.3333 18.465C20.3117 17.385 20.7558 16.44 21.4708 15.81L22.1425 17.7225C22.3483 18.3075 22.9658 18.6113 23.5292 18.3975C24.0925 18.1838 24.385 17.5425 24.1792 16.9575L23.4967 15.0112L23.5075 15C23.9418 14.9846 24.3747 15.0608 24.7799 15.224C25.1851 15.3871 25.5543 15.6339 25.8651 15.9493C26.1759 16.2647 26.422 16.6423 26.5884 17.0592C26.7548 17.4761 26.8381 17.9237 26.8333 18.375C26.8333 20.31 25.3383 21.8175 23.4533 21.75Z" fill="url(#paint0_linear_63_245)"/>
<defs>
<linearGradient id="paint0_linear_63_245" x1="16" y1="6" x2="16" y2="24" gradientUnits="userSpaceOnUse">
<stop offset="0.0001" stop-color="#FFC60D"/>
<stop offset="1" stop-color="#C48200"/>
</linearGradient>
</defs>
</svg>
