<svg width="139" height="50" viewBox="0 0 139 50" fill="none" xmlns="http://www.w3.org/2000/svg">
<g clip-path="url(#clip0_28_18)">
<path d="M24.912 9.784L20.31 38.082H13.698L15.378 27.864H8.256L6.61 38.082H0L4.639 9.784H11.214L9.242 21.732H16.364L18.338 9.784H24.913H24.912ZM38.473 38.082L38.693 31.912H32.593L30.803 38.082H23.826L33.214 9.784H45.267L45.414 38.082H38.474H38.473ZM36.976 16.662L34.091 26.645H38.876L39.277 16.663H36.976V16.662ZM73.783 9.784L69.18 38.082H62.568L57.967 22.598L55.483 38.083H48.87L53.509 9.784H60.303L64.833 24.248L67.206 9.784H73.782H73.783ZM89.208 9.784C92.398 9.784 94.675 10.649 96.038 12.378C97.037 13.688 97.535 15.326 97.535 17.291C97.535 17.999 97.475 18.745 97.354 19.531L95.929 28.296C95.442 31.256 94.248 33.628 92.349 35.41C90.449 37.192 87.99 38.082 84.969 38.082H74.34L78.98 9.784H89.208ZM86.906 15.916H84.532L81.939 31.95H85.409C86.553 31.95 87.442 31.622 88.075 30.968C88.733 30.286 89.183 29.186 89.425 27.667L90.486 21.221C90.578 20.701 90.627 20.175 90.632 19.648C90.632 17.158 89.391 15.915 86.906 15.915V15.916ZM117.112 38.082H98.775L103.416 9.784H121.753L120.73 15.916H108.968L108.128 21.222H117.844L116.822 27.352H107.105L106.375 31.951H118.137L117.113 38.082H117.112ZM137.977 38.082H121.32L125.96 9.784H132.535L128.919 31.951H139L137.977 38.082ZM73.471 43.118H137.014L135.029 49H71.486L73.471 43.118ZM6.95 -1H76.45L74.464 4.882H4.964L6.95 -1Z" fill="#9C9C9C"/>
</g>
<defs>
<clipPath id="clip0_28_18">
<rect width="139" height="50" fill="white"/>
</clipPath>
</defs>
</svg>
