<svg width="160" height="40" viewBox="0 0 160 40" fill="none" xmlns="http://www.w3.org/2000/svg">
<g clip-path="url(#clip0_28_4)">
<path d="M52.5665 40.4667V1H42.8627L22.573 31.4533L19.1481 27.0267C25.2714 26.0667 28.6962 20.52 28.6962 14.6C28.6962 8.94667 25.6865 4.2 21.6389 2.38667C19.6151 1.48 16.6054 1 12.6097 1H0V40.4667H9.39243V27.72H9.49622L18.3697 40.4667H28.2811L31.6541 34.76H42.7589V40.4667H52.5665ZM9.39243 20.84V9.85333H13.1286C16.813 9.85333 19.3038 11.7733 19.3038 15.1867C19.3038 18.8133 16.9686 20.84 13.0768 20.84H9.39243ZM42.7589 26.76H36.3243L42.6551 15.8267H42.7589V26.76ZM91.9243 40.4667V1H82.5319L82.947 25.96L68.0022 1H59.5438V40.4667H68.9362L68.6768 16.36L83.414 40.4667H91.9243ZM120.246 40.4667V31.6133H108.311V24.84H119.883V15.9867H108.311V9.85333H120.246V1H98.9189V40.4667H120.246ZM159.232 40.4667L145.689 20.68L158.402 1H148.128L137.282 18.76H137.178V1H127.371V40.4667H137.178V23.4H137.282L147.764 40.4667H159.232Z" fill="#9C9C9C"/>
</g>
<defs>
<clipPath id="clip0_28_4">
<rect width="160" height="40" fill="white"/>
</clipPath>
</defs>
</svg>
