<svg width="200" height="49" viewBox="0 0 200 49" fill="none" xmlns="http://www.w3.org/2000/svg">
<g clip-path="url(#clip0_28_6)">
<path d="M54.381 43.466C51.061 43.466 48.516 42.898 46.745 41.762C45.005 40.594 44.136 38.889 44.136 36.648C44.136 35.512 44.516 34.58 45.274 33.854C46.065 33.097 47.077 32.718 48.31 32.718C49.037 32.75 49.59 32.938 49.97 33.286C50.35 33.602 50.54 33.902 50.54 34.186C50.54 34.217 50.381 34.328 50.065 34.517C49.749 34.707 49.465 34.991 49.211 35.369C48.958 35.749 48.831 36.269 48.831 36.932C48.831 38.416 49.275 39.568 50.16 40.389C51.077 41.178 52.484 41.572 54.381 41.572C55.678 41.572 56.816 41.32 57.797 40.815C58.777 40.31 59.52 39.647 60.026 38.826C60.563 37.974 60.832 37.09 60.832 36.174C60.832 35.038 60.5 34.06 59.836 33.239C59.191 32.4074 58.3845 31.7148 57.465 31.203C56.515 30.635 55.219 29.987 53.575 29.261C51.678 28.409 50.145 27.636 48.975 26.941C47.7993 26.2421 46.7812 25.3071 45.985 24.195C45.164 23.027 44.753 21.591 44.753 19.886C44.753 17.14 45.685 15.088 47.551 13.731C49.449 12.373 51.931 11.695 54.998 11.695C57.401 11.695 59.488 12.2 61.259 13.21C63.062 14.22 63.963 15.704 63.963 17.66C63.963 18.797 63.567 19.744 62.777 20.502C62.018 21.228 61.022 21.591 59.789 21.591C59.061 21.559 58.508 21.385 58.129 21.07C57.749 20.723 57.559 20.407 57.559 20.123C57.559 20.091 57.765 19.981 58.176 19.791C58.619 19.602 58.998 19.318 59.314 18.939C59.662 18.56 59.836 18.039 59.836 17.377C59.836 16.209 59.378 15.293 58.461 14.63C57.575 13.967 56.437 13.636 55.045 13.636C53.117 13.636 51.646 14.094 50.635 15.009C49.654 15.893 49.164 16.998 49.164 18.324C49.164 19.428 49.464 20.36 50.065 21.117C50.665 21.843 51.63 22.569 52.958 23.295C54.1096 23.9005 55.2802 24.4691 56.468 25C58.492 25.915 60.089 26.752 61.259 27.51C62.4637 28.2707 63.4842 29.2896 64.247 30.493C65.069 31.723 65.481 33.255 65.481 35.085C65.481 36.664 64.975 38.1 63.963 39.395C62.983 40.657 61.638 41.651 59.931 42.377C58.255 43.103 56.405 43.467 54.381 43.467V43.466ZM78.394 43.088C76.244 43.088 74.536 42.44 73.271 41.146C72.006 39.852 71.374 38.147 71.374 36.032V27.272C71.374 26.452 71.342 25.852 71.279 25.473C71.248 25.095 71.058 24.763 70.709 24.479C70.362 24.195 69.777 24.053 68.955 24.053C68.575 24.053 68.291 24.006 68.101 23.911C67.911 23.785 67.817 23.516 67.817 23.106C67.817 22.916 67.88 22.743 68.007 22.586C68.133 22.396 68.323 22.286 68.576 22.254C70.568 21.969 72.276 21.559 73.698 21.022C74.141 20.865 74.504 20.77 74.789 20.738H74.931C75.437 20.738 75.691 21.038 75.691 21.638V35.985C75.691 37.437 76.149 38.558 77.066 39.347C77.9549 40.0944 79.0827 40.4975 80.244 40.483C81.73 40.483 82.994 40.12 84.038 39.394C85.082 38.668 85.778 37.942 86.125 37.216V27.273C86.125 26.452 86.094 25.853 86.031 25.473C85.999 25.095 85.809 24.763 85.461 24.479C85.113 24.195 84.528 24.053 83.706 24.053C83.326 24.053 83.042 24.006 82.853 23.911C82.663 23.785 82.568 23.516 82.568 23.106C82.568 22.916 82.631 22.743 82.758 22.586C82.884 22.396 83.074 22.286 83.327 22.254C85.319 21.969 87.027 21.559 88.45 21.022C88.892 20.865 89.256 20.77 89.54 20.738H89.683C90.189 20.738 90.442 21.038 90.442 21.638V38.022C90.442 39.885 91.691 40.816 94.189 40.816C94.726 40.816 94.995 41.116 94.995 41.716C94.995 42.157 94.726 42.426 94.189 42.52L86.552 43.041C86.331 43.041 86.204 42.962 86.172 42.805C86.142 42.678 86.125 42.442 86.125 42.095V39.442H86.031C85.305 40.1239 84.5614 40.7868 83.801 41.43C83.232 41.872 82.489 42.251 81.571 42.567C80.686 42.914 79.627 43.087 78.394 43.087V43.088ZM97.59 42.662C97.4795 42.6615 97.3705 42.6355 97.2717 42.5861C97.1728 42.5367 97.0867 42.4651 97.02 42.377C96.894 42.188 96.83 41.967 96.83 41.715C96.862 41.305 96.957 41.067 97.115 41.005C97.274 40.91 97.558 40.862 97.969 40.862C98.791 40.862 99.376 40.72 99.724 40.436C100.072 40.152 100.262 39.82 100.293 39.442C100.357 39.062 100.388 38.463 100.388 37.642V26.799C100.388 25.979 100.357 25.379 100.293 24.999C100.262 24.621 100.072 24.289 99.724 24.006C99.376 23.722 98.791 23.579 97.969 23.579C97.589 23.579 97.305 23.532 97.116 23.437C96.926 23.311 96.831 23.043 96.831 22.632C96.831 22.443 96.894 22.269 97.021 22.112C97.147 21.922 97.337 21.812 97.59 21.78C99.645 21.464 101.337 21.054 102.665 20.549C103.203 20.391 103.566 20.296 103.756 20.265H103.898C104.404 20.265 104.657 20.565 104.657 21.165V24.1H104.799C105.906 22.995 107.029 22.127 108.167 21.496C109.306 20.833 110.333 20.502 111.25 20.502C112.294 20.502 113.116 20.896 113.717 21.685C114.349 22.443 114.665 23.327 114.665 24.337C114.665 25.221 114.397 26.01 113.859 26.704C113.321 27.399 112.578 27.746 111.63 27.746C111.217 27.7532 110.809 27.6555 110.444 27.462C110.128 27.272 109.954 27.115 109.922 26.989C109.954 26.926 110.112 26.736 110.396 26.42C110.681 26.073 110.823 25.679 110.823 25.237C110.823 24.668 110.665 24.211 110.349 23.864C110.064 23.516 109.669 23.343 109.163 23.343C108.626 23.343 107.946 23.611 107.124 24.148C106.301 24.653 105.495 25.3 104.705 26.089V37.642C104.705 38.463 104.736 39.062 104.799 39.442C104.863 39.82 105.068 40.152 105.416 40.436C105.764 40.72 106.349 40.862 107.171 40.862H107.456C107.709 40.862 107.898 40.91 108.025 41.004C108.151 41.099 108.23 41.336 108.262 41.714C108.262 41.967 108.199 42.188 108.072 42.377C107.946 42.567 107.756 42.662 107.503 42.662C105.844 42.5719 104.184 42.5242 102.523 42.519C101.1 42.519 99.456 42.567 97.59 42.661V42.662ZM171.257 43.088C169.107 43.088 167.194 42.582 165.518 41.572C163.842 40.531 162.53 39.173 161.581 37.5C160.677 35.8447 160.204 33.9882 160.206 32.102C160.206 29.735 160.759 27.683 161.866 25.947C162.973 24.179 164.38 22.837 166.087 21.922C167.795 20.975 169.518 20.502 171.257 20.502C173.408 20.502 175.321 21.022 176.997 22.064C178.641 23.0407 179.986 24.449 180.886 26.136C181.823 27.7632 182.313 29.6086 182.309 31.486C182.309 33.854 181.74 35.922 180.602 37.69C179.495 39.426 178.088 40.767 176.38 41.714C174.673 42.63 172.965 43.088 171.257 43.088ZM171.257 41.336C173.408 41.336 174.973 40.42 175.953 38.589C176.965 36.759 177.471 34.391 177.471 31.487C177.471 28.772 176.949 26.563 175.906 24.857C174.894 23.122 173.344 22.254 171.257 22.254C169.076 22.254 167.495 23.154 166.514 24.953C165.534 26.752 165.044 29.103 165.044 32.008C165.044 34.722 165.55 36.964 166.562 38.731C167.574 40.468 169.139 41.336 171.257 41.336ZM194.261 43.324C192.711 43.324 191.383 42.756 190.276 41.62C189.17 40.483 188.616 38.858 188.616 36.743V22.822L185.865 22.917C185.773 22.9178 185.682 22.8967 185.6 22.8555C185.517 22.8143 185.446 22.7541 185.391 22.68C185.267 22.4987 185.2 22.2839 185.201 22.064C185.201 21.78 185.249 21.544 185.343 21.354C185.47 21.133 185.644 21.007 185.865 20.975C186.972 20.755 187.826 20.407 188.427 19.934C189.059 19.428 189.518 18.892 189.802 18.324C190.087 17.724 190.435 16.824 190.846 15.624C191.004 15.214 191.352 15.009 191.889 15.009C192.11 15.009 192.332 15.072 192.553 15.199C192.774 15.293 192.885 15.451 192.885 15.672L192.553 21.07L198.103 20.738H198.198C198.609 20.738 198.814 21.038 198.814 21.638C198.814 21.985 198.751 22.317 198.624 22.632C198.53 22.917 198.403 23.059 198.245 23.059L192.933 22.917V37.311C192.933 38.353 193.138 39.221 193.549 39.915C193.992 40.61 194.703 40.957 195.684 40.957C196.664 40.957 197.534 40.783 198.292 40.436C198.704 40.278 198.956 40.199 199.051 40.199C199.273 40.199 199.447 40.294 199.573 40.483C199.7 40.641 199.826 40.863 199.953 41.146C199.987 41.2204 200.003 41.3014 200 41.383C200 41.509 199.905 41.651 199.715 41.809C198.798 42.409 197.929 42.804 197.107 42.993C196.316 43.213 195.367 43.324 194.261 43.324ZM117.597 42.377C117.723 42.567 117.913 42.661 118.166 42.661C119.809 42.5708 121.454 42.5235 123.099 42.519C125.218 42.519 127.194 42.567 129.028 42.661C129.132 42.6634 129.235 42.6384 129.327 42.5886C129.418 42.5387 129.495 42.4658 129.55 42.377C129.676 42.187 129.739 41.967 129.739 41.714C129.708 41.336 129.629 41.099 129.502 41.004C129.407 40.91 129.218 40.862 128.933 40.862H128.648C127.605 40.862 126.862 40.783 126.419 40.625C125.976 40.468 125.676 40.183 125.518 39.773C125.36 39.331 125.281 38.621 125.281 37.643V22.915H130.309C130.419 22.9145 130.528 22.8886 130.627 22.8393C130.725 22.7901 130.811 22.7188 130.878 22.631C131.036 22.442 131.115 22.221 131.115 21.968C131.083 21.59 130.988 21.353 130.83 21.258C130.704 21.132 130.498 21.068 130.214 21.068H125.281V18.228C125.281 16.713 125.344 15.387 125.47 14.25C125.588 13.1085 125.961 12.0082 126.561 11.03C127.162 10.052 128.095 9.563 129.36 9.563C129.505 9.563 129.646 9.571 129.782 9.588C129.764 9.05753 129.799 8.5266 129.886 8.003C129.821 8.00122 129.757 8.00022 129.692 8C126.909 8.063 124.743 9.12 123.194 11.173C121.676 13.193 120.917 15.829 120.917 19.08V21.069H118.071C117.66 21.069 117.375 21.116 117.217 21.211C117.059 21.274 116.964 21.527 116.933 21.968C116.933 22.221 116.996 22.442 117.122 22.631C117.281 22.821 117.486 22.916 117.739 22.916H120.917V37.642C120.917 38.495 120.885 39.11 120.822 39.489C120.791 39.836 120.601 40.152 120.253 40.436C119.905 40.72 119.32 40.862 118.498 40.862C118.087 40.862 117.802 40.91 117.644 41.004C117.518 41.067 117.439 41.304 117.407 41.714C117.407 41.967 117.47 42.188 117.597 42.377Z" fill="#9C9C9C"/>
<path fill-rule="evenodd" clip-rule="evenodd" d="M142.952 10.8655C142.951 11.5569 142.814 12.2414 142.549 12.8799C142.284 13.5185 141.896 14.0985 141.406 14.5869C140.917 15.0754 140.336 15.4626 139.697 15.7266C139.058 15.9906 138.373 16.1261 137.682 16.1255C136.286 16.1265 134.946 15.573 133.958 14.5866C132.97 13.6003 132.414 12.2618 132.412 10.8655C132.412 10.1739 132.549 9.48928 132.814 8.85058C133.079 8.21188 133.468 7.63166 133.957 7.14303C134.447 6.65441 135.027 6.26696 135.666 6.00281C136.306 5.73865 136.99 5.60296 137.682 5.60349C138.374 5.60283 139.058 5.73843 139.698 6.00254C140.337 6.26665 140.918 6.65409 141.407 7.14274C141.896 7.63139 142.285 8.21167 142.55 8.85042C142.815 9.48918 142.952 10.1739 142.952 10.8655ZM137.682 13.4955C138.028 13.4959 138.37 13.4282 138.69 13.2962C139.009 13.1642 139.3 12.9706 139.544 12.7264C139.789 12.4821 139.983 12.1921 140.116 11.8728C140.248 11.5535 140.317 11.2112 140.317 10.8655C140.317 10.5197 140.249 10.1773 140.116 9.85788C139.984 9.53847 139.789 9.2483 139.545 9.00397C139.3 8.75963 139.009 8.56591 138.69 8.43388C138.37 8.30185 138.028 8.23409 137.682 8.23449C136.984 8.23422 136.314 8.51106 135.82 9.0042C135.326 9.49733 135.048 10.1664 135.047 10.8645C135.048 11.5627 135.326 12.2321 135.82 12.7254C136.314 13.2188 136.984 13.4958 137.682 13.4955ZM135.372 18.4145V43.7845C135.372 44.0675 135.452 44.2885 135.61 44.4465C135.768 44.6365 135.989 44.7305 136.274 44.7305C136.558 44.7305 136.795 44.6045 136.985 44.3525C137.175 44.1315 137.349 43.7995 137.507 43.3575C137.665 42.9155 137.807 42.5685 137.934 42.3155H138.171C140.226 43.8625 142.661 44.6355 145.475 44.6355C147.373 44.6355 149.159 44.1305 150.835 43.1205C152.511 42.1105 153.839 40.7375 154.82 39.0005C155.831 37.2335 156.337 35.2925 156.337 33.1775C156.337 31.0305 155.895 29.1215 155.009 27.4475C154.156 25.7435 152.97 24.4175 151.452 23.4705C149.934 22.5235 148.242 22.0505 146.377 22.0505C145.238 22.0505 144.084 22.2865 142.914 22.7605C141.776 23.2025 140.748 23.8805 139.831 24.7965H139.689V18.5005C138.269 18.869 136.776 18.8393 135.372 18.4145ZM149.697 40.4215C148.527 42.1585 146.977 43.0265 145.049 43.0265C144.037 43.0265 143.136 42.8055 142.345 42.3635C141.586 41.9215 140.969 41.4005 140.495 40.8005C140.052 40.1695 139.784 39.6005 139.689 39.0965V26.5965C141.048 25.1435 142.724 24.4175 144.717 24.4175C146.962 24.4175 148.653 25.3015 149.792 27.0695C150.93 28.8055 151.499 30.9045 151.499 33.3665C151.499 36.3025 150.899 38.6545 149.697 40.4215ZM12.7 1.36749C13.0354 1.12846 13.4371 1 13.849 1C14.2609 1 14.6625 1.12846 14.998 1.36749C23.558 7.47149 27.438 14.7885 27.683 25.2875C27.796 30.3005 27.313 34.8905 25.842 38.8555C24.332 42.8235 21.649 46.4885 17.699 49.5845C17.453 49.7756 17.1655 49.906 16.8596 49.9651C16.5538 50.0241 16.2384 50.0102 15.939 49.9245C14.729 49.5775 14.523 48.1455 13.849 47.2535C13.175 48.1455 12.971 49.5765 11.759 49.9235C11.4597 50.0091 11.1444 50.0229 10.8388 49.9638C10.5332 49.9047 10.2458 49.7744 9.99997 49.5835C6.04997 46.4885 3.36597 42.8235 1.85697 38.8555C0.38697 34.8905 -0.0970298 30.3005 0.0159702 25.2875C0.25997 14.7885 4.13997 7.47049 12.7 1.36749ZM17.126 45.0625C19.598 42.7925 21.088 40.3175 22.14 37.4705C23.465 33.9905 23.847 30.1445 23.732 25.3795C23.542 17.1925 21.622 11.8655 15.809 6.91949V21.3875C18.082 21.9715 19.102 24.1975 19.102 26.6475C19.102 29.0995 18.082 31.3255 15.809 31.9095V43.7465C15.809 43.7465 16.865 44.7195 17.126 45.0625ZM10.538 45.0625C8.06597 42.7925 6.61097 40.3175 5.55797 37.4705C4.23397 33.9905 3.85197 30.1445 3.96797 25.3795C4.15797 17.2095 6.06697 11.8595 11.856 6.91949V21.3875C9.58297 21.9715 8.56197 24.1975 8.56197 26.6475C8.56197 29.0995 9.58197 31.3255 11.856 31.9095V43.7465C11.856 43.7465 10.79 44.7315 10.538 45.0625ZM13.832 24.0175C13.1338 24.017 12.4641 24.2937 11.9699 24.7869C11.4758 25.2801 11.1978 25.9493 11.197 26.6475C11.197 28.1015 12.377 29.2785 13.832 29.2785C14.5301 29.279 15.1999 29.0023 15.694 28.5091C16.1881 28.0159 16.4662 27.3466 16.467 26.6485C16.467 25.1955 15.287 24.0185 13.832 24.0185V24.0175Z" fill="#9C9C9C"/>
</g>
<defs>
<clipPath id="clip0_28_6">
<rect width="200" height="49" fill="white"/>
</clipPath>
</defs>
</svg>
