<svg width="24" height="16" viewBox="0 0 24 16" fill="none" xmlns="http://www.w3.org/2000/svg">
<path fill-rule="evenodd" clip-rule="evenodd" d="M15.3943 0.986422C15.9541 0.375743 16.9029 0.334489 17.5136 0.894278L23.5136 6.39428C23.8075 6.66371 23.9821 7.03907 23.9987 7.43746C24.0153 7.83584 23.8727 8.22444 23.6022 8.51743L17.6022 15.0174C17.0403 15.6262 16.0913 15.6641 15.4826 15.1022C14.8738 14.5403 14.8359 13.5913 15.3978 12.9826L19.074 9.00001H1.5C0.671573 9.00001 0 8.32844 0 7.50001C0 6.67158 0.671573 6.00001 1.5 6.00001H18.6438L15.4864 3.10574C14.8757 2.54595 14.8345 1.5971 15.3943 0.986422Z" fill="#332200"/>
</svg>
