<svg width="137" height="32" viewBox="0 0 137 32" fill="none" xmlns="http://www.w3.org/2000/svg">
<path d="M5.04128 13.196C5.68945 12.236 6.57767 11.456 7.70596 10.856C8.85826 10.256 10.1666 9.956 11.631 9.956C13.3354 9.956 14.8718 10.376 16.2401 11.216C17.6325 12.056 18.7248 13.256 19.517 14.816C20.3332 16.352 20.7413 18.14 20.7413 20.18C20.7413 22.22 20.3332 24.032 19.517 25.616C18.7248 27.176 17.6325 28.388 16.2401 29.252C14.8718 30.116 13.3354 30.548 11.631 30.548C10.1426 30.548 8.83425 30.26 7.70596 29.684C6.60168 29.084 5.71345 28.316 5.04128 27.38V30.224H0V3.584H5.04128V13.196ZM15.592 20.18C15.592 18.98 15.3399 17.948 14.8358 17.084C14.3557 16.196 13.7075 15.524 12.8913 15.068C12.1035 14.6131 11.2084 14.377 10.2986 14.384C9.38639 14.384 8.52217 14.624 7.70596 15.104C6.91376 15.56 6.2656 16.232 5.76147 17.12C5.28134 18.008 5.04128 19.052 5.04128 20.252C5.04128 21.452 5.28134 22.496 5.76147 23.384C6.2656 24.272 6.91376 24.956 7.70596 25.436C8.52217 25.892 9.38639 26.12 10.2986 26.12C11.2349 26.12 12.0991 25.88 12.8913 25.4C13.7075 24.92 14.3557 24.236 14.8358 23.348C15.3399 22.46 15.592 21.404 15.592 20.18ZM26.9609 7.904C26.0726 7.904 25.3284 7.628 24.7283 7.076C24.1521 6.5 23.8641 5.792 23.8641 4.952C23.8641 4.112 24.1521 3.416 24.7283 2.864C25.3284 2.288 26.0726 2 26.9609 2C27.8491 2 28.5813 2.288 29.1574 2.864C29.7576 3.416 30.0577 4.112 30.0577 4.952C30.0577 5.792 29.7576 6.5 29.1574 7.076C28.5813 7.628 27.8491 7.904 26.9609 7.904ZM29.4455 10.28V30.224H24.4042V10.28H29.4455ZM46.2378 30.224L39.468 21.728V30.224H34.4268V3.584H39.468V18.74L46.1658 10.28H52.7194L43.9332 20.288L52.7914 30.224H46.2378ZM53.1585 20.252C53.1585 18.188 53.5786 16.388 54.4189 14.852C55.2591 13.292 56.4234 12.092 57.9117 11.252C59.4001 10.388 61.1046 9.956 63.025 9.956C65.4977 9.956 67.5382 10.58 69.1466 11.828C70.779 13.052 71.8713 14.78 72.4234 17.012H66.9871C66.699 16.148 66.2069 15.476 65.5107 14.996C64.8385 14.492 63.9983 14.24 62.99 14.24C61.5497 14.24 60.4094 14.768 59.5692 15.824C58.729 16.856 58.3088 18.332 58.3088 20.252C58.3088 22.148 58.729 23.624 59.5692 24.68C60.4094 25.712 61.5497 26.228 62.99 26.228C65.0306 26.228 66.3629 25.316 66.9871 23.492H72.4244C71.8723 25.652 70.78 27.368 69.1476 28.64C67.5152 29.912 65.4747 30.548 63.026 30.548C61.1056 30.548 59.4011 30.128 57.9127 29.288C56.4362 28.4362 55.2266 27.1895 54.4199 25.688C53.5796 24.128 53.1595 22.316 53.1595 20.252H53.1585ZM80.1584 13.376C80.7766 12.3495 81.6435 11.4952 82.679 10.892C83.7353 10.292 84.9356 9.992 86.28 9.992V15.284H84.9476C83.3632 15.284 82.1629 15.656 81.3467 16.4C80.5545 17.144 80.1584 18.44 80.1584 20.288V30.224H75.1171V10.28H80.1584V13.376ZM101.738 27.38C101.186 28.292 100.286 29.06 99.0372 29.684C97.7889 30.284 96.4446 30.584 95.0042 30.584C93.7559 30.584 92.6276 30.332 91.6193 29.828C90.6111 29.324 89.8189 28.628 89.2427 27.74C88.6666 26.852 88.3785 25.832 88.3785 24.68C88.3785 22.832 89.0627 21.32 90.431 20.144C91.8234 18.968 93.8999 18.38 96.6606 18.38H101.738C101.69 17.108 101.318 16.1 100.622 15.356C99.9494 14.588 99.0132 14.204 97.8129 14.204C96.7566 14.204 95.8804 14.492 95.1842 15.068C94.4881 15.62 94.0439 16.4 93.8519 17.408H88.8106C89.0507 15.968 89.5668 14.684 90.359 13.556C91.1681 12.41 92.2597 11.4923 93.5278 10.892C94.8481 10.244 96.3245 9.92 97.9569 9.92C99.6374 9.92 101.15 10.268 102.494 10.964C103.829 11.6289 104.943 12.6669 105.699 13.952C106.467 15.248 106.851 16.772 106.851 18.524V30.224H101.738V27.38ZM96.4806 26.516C97.3208 26.516 98.137 26.336 98.9292 25.976C99.7454 25.616 100.418 25.076 100.946 24.356C101.474 23.636 101.738 22.784 101.738 21.8V21.656H96.9487C95.7964 21.656 94.9322 21.884 94.356 22.34C93.8039 22.796 93.5278 23.396 93.5278 24.14C93.5278 24.86 93.7799 25.436 94.284 25.868C94.8121 26.3 95.5443 26.516 96.4806 26.516ZM117.483 14.42V30.224H112.37V14.42H110.101V10.28H112.37V9.272C112.37 6.824 113.066 5.024 114.458 3.872C115.85 2.72 117.951 2.18 120.76 2.252V6.5C119.535 6.476 118.683 6.68 118.203 7.112C117.723 7.544 117.483 8.324 117.483 9.452V10.28H124.035V5.348H129.112V10.28H133.577V14.42H129.112V24.068C129.112 24.74 129.268 25.232 129.58 25.544C129.916 25.832 130.468 25.976 131.236 25.976H133.577V30.224H130.408C126.159 30.224 124.035 28.16 124.035 24.032V14.42H117.483Z" fill="white"/>
</svg>
